<svg xmlns="http://www.w3.org/2000/svg" viewBox="0 0 203.25 244.79"><defs><style>.cls-1{fill:#d0d2d3;}.cls-2{fill:#3ce3b5;}.cls-3{fill:#005fdb;}.cls-4{fill:#6a15ab;}</style></defs><g id="Layer_2" data-name="Layer 2"><g id="Layer_1-2" data-name="Layer 1"><path class="cls-1" d="M197.56,77.74,164.44,18.88A1.88,1.88,0,0,0,163.3,18L118.71,5.78a1.88,1.88,0,0,0-.82,0l-53.61,9h-.06l-.2.07a2.15,2.15,0,0,0-.27.1,1.7,1.7,0,0,0-.22.15,1.07,1.07,0,0,0-.19.13L25.76,48.84a1.83,1.83,0,0,0-.6,1.16h0L19.71,91.61A1.93,1.93,0,0,0,20.07,93l24,32.08h0a.25.25,0,0,0,0,.07,1.81,1.81,0,0,0,.48.43,2,2,0,0,0,.36.16L117,151.89l20.7,27.75L84.43,190.4,66.17,165.21l.22-.73a1.91,1.91,0,0,0-.31-1.71,1.88,1.88,0,0,0-1.57-.72L14.3,164.36a1.89,1.89,0,0,0-1.59,2.74l31.17,60.34a1.81,1.81,0,0,0,.63.72h0l0,0h0a1.89,1.89,0,0,0,.65.24l72.62,13.68.16,0h.3a2,2,0,0,0,.54-.11H119l.05,0,66.72-31.42a1.88,1.88,0,0,0,1.08-1.58h0l4.52-68.91V140h0v-.18h0a1.87,1.87,0,0,0-.35-1h0a2.21,2.21,0,0,0-.29-.32h0a1.83,1.83,0,0,0-.39-.21l0,0-70.73-36.8-22.86-43,45.34,18.19v0a1.8,1.8,0,0,0,.56.16l53.15,3.79a1.85,1.85,0,0,0,1.72-.87A1.86,1.86,0,0,0,197.56,77.74Zm-35-54.55L190,72.05,149.9,39.43ZM119.15,9.8l40.43,11.07L146.19,38.08,96.41,51.78Zm-68,70.65-2.25-3.11,3,.71L65.48,21,90,54.3Zm93.88-38.16-3.84,29.92L98.53,55.09Zm-52.65,9L67.92,18l46.79-7.89ZM61.37,22l-13,54.55L29.53,50.52ZM28.27,55.19,48.12,82.64,44.2,119,23.54,91.34ZM51.76,84l59.93,18.79-64,18.55Zm87.58,45.21-15-21.06L177.75,136Zm38.25,10.54-53.88,7.86L138.87,133ZM117.45,105l16.94,23.71-78.32-5.91Zm-58.38,21.8,74.86,5.65-16.19,15.65Zm124.14,15.9-41.89,35.43L121.6,151.72Zm-46.65,70L90,193.12l49-9.89ZM45.1,221.61,17.4,168,62,165.93Zm19.7-51.88,16.3,22.49L49.31,220.7ZM49.65,225.45l33.67-30.17,30.59,42.27Zm68.62,11.71L89.08,196.83,135,216.18Zm6.44-2,15-18.85a1.87,1.87,0,0,0,.4-1l2.51-31.1L181,208.6Zm58.55-29.57-39.08-24.88,43.1-36.46ZM56.36,81.5,92,57.49l22.42,42.2Zm92.36-38.18,40.59,33-44.42-3.17Z"/><circle class="cls-2" cx="189.45" cy="74.5" r="13.8"/><circle class="cls-2" cx="14.39" cy="166.24" r="14.39"/><circle class="cls-2" cx="27.02" cy="50.24" r="10.45"/><circle class="cls-3" cx="142.77" cy="74.86" r="4.52"/><circle class="cls-2" cx="118.2" cy="7.6" r="7.6"/><circle class="cls-3" cx="92.65" cy="54.76" r="11.24"/><circle class="cls-4" cx="147.29" cy="39.73" r="6.54"/><circle class="cls-3" cx="162.8" cy="19.8" r="5.73"/><circle class="cls-3" cx="45.55" cy="123.93" r="8.25"/><circle class="cls-4" cx="21.58" cy="91.61" r="4.52"/><circle class="cls-4" cx="64.08" cy="164.44" r="6.77"/><circle class="cls-4" cx="118.96" cy="149.8" r="6.83"/><circle class="cls-3" cx="137.31" cy="215.11" r="6.68"/><circle class="cls-4" cx="64.59" cy="16.63" r="9.06"/><circle class="cls-4" cx="50.07" cy="82.13" r="13"/><circle class="cls-4" cx="118.2" cy="102.86" r="6.5"/><circle class="cls-3" cx="187.97" cy="139.93" r="8.6"/><circle class="cls-4" cx="141.83" cy="180.9" r="14.65"/><circle class="cls-4" cx="118.2" cy="240.27" r="4.52"/><circle class="cls-3" cx="83.62" cy="192.49" r="9.96"/><circle class="cls-4" cx="45.55" cy="226.59" r="11.48"/><circle class="cls-2" cx="184.93" cy="208.43" r="10.45"/><circle class="cls-2" cx="136.24" cy="130.93" r="10.45"/></g></g></svg>